# xmcd
#
# Track frame offsets:
#	150
#	11599
#	24445
#	34751
#	45038
#	58213
#	67854
#	76241
#	86571
#	98931
#	110042
#	122826
#	134569
#	147708
#	156926
#	168084
#	178161
#	190753
#
# Disc length: 2658
#
# Revision: 2
# Processed by: cddbd v1.5.1PL0 Copyright (c) Steve Scherf et al.
# Submitted via: CDex 1.51
# Normalized: r1:TDELIM( - )
#
DISCID=f10a6012
DTITLE=Various Artist - Country Vol 2
DYEAR=1900
DGENRE=Country
TTITLE0=Patsy Cline - Walkin' After Midnight
TTITLE1=Kenny Rogers - Ruby, Don't Take Your Love To Town
TTITLE2=Jerry Wallace - You're Singing Our Love Song
TTITLE3=Willie Nelson - Broken Promises
TTITLE4=Jerry Lee Lewis - You Win Again
TTITLE5=Donna Fargo - Sticks And Stones
TTITLE6=Johnny Cash - Country Boy
TTITLE7=Faron Young - Hello Walls
TTITLE8=Billie Jo Spears - The Cheating Kind
TTITLE9=Patsy Cline - Can't Forget
TTITLE10=Freddy Fender - You'll Lose A Good Thing
TTITLE11=Barabara Fairchild - Cheatin' Is
TTITLE12=Patty Page - The Tennessee Waltz
TTITLE13=Conway Twitty - Give Me Some Love
TTITLE14=Razzy Bailey - If I Could Write A Song
TTITLE15=Mickey Gilley - I Miss You So
TTITLE16=Hank Williams - Honky Tonkin'
TTITLE17=Waylon Jennings - Abilene
EXTD=
EXTT0=
EXTT1=
EXTT2=
EXTT3=
EXTT4=
EXTT5=
EXTT6=
EXTT7=
EXTT8=
EXTT9=
EXTT10=
EXTT11=
EXTT12=
EXTT13=
EXTT14=
EXTT15=
EXTT16=
EXTT17=
PLAYORDER=
